<?xml version="1.0" encoding="UTF-8"?>
<svg width="28px" height="28px" viewBox="0 0 28 28" version="1.1" xmlns="http://www.w3.org/2000/svg" xmlns:xlink="http://www.w3.org/1999/xlink">
    <title>编组</title>
    <g id="页面-1" stroke="none" stroke-width="1" fill="none" fill-rule="evenodd">
        <g id="画板" transform="translate(-215.000000, -217.000000)">
            <g id="编组" transform="translate(215.000000, 217.000000)">
                <path d="M7,0 L14,14 L1.61803399,14 C1.06574924,14 0.618033989,13.5522847 0.618033989,13 C0.618033989,12.8447549 0.654179081,12.6916418 0.723606798,12.5527864 L7,0 L7,0 Z" id="三角形" fill="#41B883" transform="translate(7.000000, 7.000000) scale(1, -1) translate(-7.000000, -7.000000) "></path>
                <path d="M21,0 L27.2763932,12.5527864 C27.5233825,13.0467649 27.3231581,13.6474379 26.8291796,13.8944272 C26.6903242,13.9638549 26.5372111,14 26.381966,14 L14,14 L14,14 L21,0 Z" id="三角形备份" fill="#41B883" transform="translate(21.000000, 7.000000) scale(1, -1) translate(-21.000000, -7.000000) "></path>
                <path d="M14.8944272,15.7888544 L21,28 L21,28 L7,28 L13.1055728,15.7888544 C13.3525621,15.2948759 13.9532351,15.0946515 14.4472136,15.3416408 C14.640741,15.4384045 14.7976635,15.595327 14.8944272,15.7888544 Z" id="三角形备份-2" fill="#41B883" transform="translate(14.000000, 21.000000) scale(1, -1) translate(-14.000000, -21.000000) "></path>
                <polygon id="三角形备份-3" fill="#34495D" points="14 0 21 14 7 14"></polygon>
            </g>
        </g>
    </g>
</svg>